<svg width="194" height="194" viewBox="0 0 194 194" fill="none" xmlns="http://www.w3.org/2000/svg">
<rect x="0.5" y="0.5" width="193" height="193" rx="96.5" fill="#C4C4C4" stroke="#C4C4C4"/>
<path d="M115 85H108.66L105 81H93V85H103.24L106.9 89H115V113H83V95H79V113C79 115.2 80.8 117 83 117H115C117.2 117 119 115.2 119 113V89C119 86.8 117.2 85 115 85ZM89 101C89 106.52 93.48 111 99 111C104.52 111 109 106.52 109 101C109 95.48 104.52 91 99 91C93.48 91 89 95.48 89 101ZM99 95C102.3 95 105 97.7 105 101C105 104.3 102.3 107 99 107C95.7 107 93 104.3 93 101C93 97.7 95.7 95 99 95ZM83 85H89V81H83V75H79V81H73V85H79V91H83V85Z" fill="white"/>
</svg>