<svg width="48" height="48" viewBox="0 0 48 48" fill="none" xmlns="http://www.w3.org/2000/svg">
<path d="M48 24C48 37.2548 37.2548 48 24 48C10.7452 48 0 37.2548 0 24C0 10.7452 10.7452 0 24 0C37.2548 0 48 10.7452 48 24Z" fill="#C8C8C8"/>
<path fill-rule="evenodd" clip-rule="evenodd" d="M13.3934 22.4853L22.9394 12.9393C23.5252 12.3536 24.4749 12.3536 25.0607 12.9393L34.6066 22.4853C35.1924 23.0711 35.1924 24.0208 34.6066 24.6066C34.0209 25.1924 33.0711 25.1924 32.4853 24.6066L25.5 17.6213L25.5 34L22.5 34L22.5 17.6213L15.5148 24.6066C14.929 25.1924 13.9792 25.1924 13.3934 24.6066C12.8077 24.0208 12.8077 23.0711 13.3934 22.4853Z" fill="white"/>
</svg>
