<svg id="Capa_1" enable-background="new 0 0 512 512" height="512" viewBox="0 0 512 512" width="512" xmlns="http://www.w3.org/2000/svg" xmlns:xlink="http://www.w3.org/1999/xlink"><linearGradient id="SVGID_1_" gradientUnits="userSpaceOnUse" x1="256" x2="256" y1="512" y2="0"><stop offset="0" stop-color="#c3ffe8"/><stop offset=".9973" stop-color="#f0fff4"/></linearGradient><linearGradient id="SVGID_2_" gradientUnits="userSpaceOnUse" x1="256" x2="256" y1="104.988" y2="407"><stop offset="0" stop-color="#9cffac"/><stop offset="1" stop-color="#00b59c"/></linearGradient><g><g><circle cx="256" cy="256" fill="url(#SVGID_1_)" r="256"/></g><g><g><path d="m344.823 282.636h-177.647c-4.91 0-8.883 3.973-8.883 8.882v17.765c0 4.91 3.973 8.882 8.883 8.882h10.484l16.337 81.685c.99 4.922 5.81 7.948 10.444 6.965 4.823-.963 7.945-5.638 6.974-10.453l-1.428-7.139h19.366v8.882c0 4.91 3.973 8.882 8.882 8.882s8.882-3.973 8.882-8.882v-8.882h17.765v8.882c0 4.91 3.973 8.882 8.882 8.882 4.91 0 8.882-3.973 8.882-8.882v-8.882h19.366l-1.428 7.139c-.971 4.814 2.151 9.49 6.974 10.453 4.632.982 9.454-2.044 10.444-6.965l16.337-81.685h10.484c4.909 0 8.882-3.973 8.882-8.882v-17.765c.001-4.91-3.972-8.882-8.882-8.882zm-115.47 88.823h-22.919l-3.552-17.765h26.471zm0-35.529h-30.025l-3.553-17.765h33.578zm35.529 35.529h-17.765v-17.765h17.765zm0-35.529h-17.765v-17.765h17.765zm40.684 35.529h-22.919v-17.765h26.471zm7.105-35.529h-30.025v-17.765h33.578zm-118.848-142.118v71.059h124.353v-71.059zm209.221-51.802c-2.272-1.509-56.573-37.021-147.045-37.021s-144.772 35.512-147.045 37.021c-2.464 1.648-3.956 4.424-3.956 7.39v159.883c0 4.91 3.973 8.882 8.883 8.882h28.283c-.995-2.792-1.636-5.753-1.636-8.882v-17.765c0-14.694 11.953-26.647 26.647-26.647h8.882v-79.941c0-4.91 3.973-8.882 8.882-8.882h142.118c4.91 0 8.882 3.973 8.882 8.882v79.941h8.883c14.694 0 26.647 11.953 26.647 26.647v17.765c0 3.129-.641 6.09-1.636 8.882h28.283c4.91 0 8.882-3.973 8.882-8.882v-159.883c.002-2.967-1.49-5.742-3.954-7.39z" fill="url(#SVGID_2_)"/></g></g></g></svg>