<svg id="Capa_1" enable-background="new 0 0 512 512" height="512" viewBox="0 0 512 512" width="512" xmlns="http://www.w3.org/2000/svg" xmlns:xlink="http://www.w3.org/1999/xlink"><linearGradient id="SVGID_1_" gradientUnits="userSpaceOnUse" x1="256" x2="256" y1="512" y2="0"><stop offset="0" stop-color="#ffedad"/><stop offset="1" stop-color="#ffffe5"/></linearGradient><linearGradient id="SVGID_2_" gradientUnits="userSpaceOnUse" x1="256" x2="256" y1="407" y2="105"><stop offset="0" stop-color="#feba00"/><stop offset="1" stop-color="#fd5900"/></linearGradient><g><g><circle cx="256" cy="256" fill="url(#SVGID_1_)" r="256"/></g><g><g><path d="m202.706 105c-37.958 0-62.177 57.865-62.177 97.706 0 29.058 12.543 49.287 35.53 57.683v119.964c0 14.694 11.953 26.647 26.647 26.647s26.647-11.953 26.647-26.647v-119.964c22.986-8.396 35.529-28.625 35.529-57.683 0-39.841-24.218-97.706-62.176-97.706zm159.882 0c-4.91 0-8.883 3.973-8.883 8.882v53.294c0 4.901-3.981 8.882-8.882 8.882s-8.882-3.981-8.882-8.882v-53.294c0-4.91-3.973-8.882-8.882-8.882-4.91 0-8.882 3.973-8.882 8.882v53.294c0 4.901-3.981 8.882-8.882 8.882s-8.883-3.981-8.883-8.882v-53.294c0-4.91-3.973-8.882-8.882-8.882s-8.882 3.973-8.882 8.882v106.588c0 14.018 6.697 27.202 17.765 35.529v124.353c0 14.694 11.953 26.647 26.647 26.647s26.647-11.953 26.647-26.647v-124.352c11.068-8.327 17.765-21.512 17.765-35.529v-106.589c-.001-4.909-3.974-8.882-8.884-8.882z" fill="url(#SVGID_2_)"/></g></g></g></svg>