<svg id="Capa_1" enable-background="new 0 0 512 512" height="512" viewBox="0 0 512 512" width="512" xmlns="http://www.w3.org/2000/svg" xmlns:xlink="http://www.w3.org/1999/xlink"><linearGradient id="SVGID_1_" gradientUnits="userSpaceOnUse" x1="256" x2="256" y1="512" y2="0"><stop offset="0" stop-color="#c3ffe8"/><stop offset=".9973" stop-color="#f0fff4"/></linearGradient><linearGradient id="SVGID_2_" gradientUnits="userSpaceOnUse" x1="256" x2="256" y1="176.059" y2="335.941"><stop offset="0" stop-color="#00b59c"/><stop offset="1" stop-color="#9cffac"/></linearGradient><g><g><circle cx="256" cy="256" fill="url(#SVGID_1_)" r="256"/></g><g><g><path d="m184.941 176.059h-17.765c-4.91 0-8.882 3.973-8.882 8.882 0 4.901-3.99 8.882-8.882 8.882-4.91 0-8.882 3.973-8.882 8.882v106.588c0 4.909 3.973 8.882 8.882 8.882 4.892 0 8.882 3.981 8.882 8.882 0 4.91 3.973 8.882 8.882 8.882h17.765c4.91 0 8.882-3.973 8.882-8.882v-142.116c.001-4.91-3.972-8.882-8.882-8.882zm177.647 17.764c-4.892 0-8.882-3.981-8.882-8.882 0-4.91-3.973-8.882-8.882-8.882h-17.765c-4.91 0-8.882 3.973-8.882 8.882v142.118c0 4.91 3.973 8.882 8.882 8.882h17.765c4.91 0 8.882-3.973 8.882-8.882 0-4.901 3.99-8.882 8.882-8.882 4.91 0 8.882-3.973 8.882-8.882v-106.589c.001-4.91-3.972-8.883-8.882-8.883zm-257.588 53.295v17.765c0 4.905 3.977 8.882 8.882 8.882h8.882v-35.529h-8.882c-4.905-.001-8.882 3.975-8.882 8.882zm106.588 26.647h88.823v-35.529h-88.823zm186.53-35.53h-8.882v35.529h8.882c4.905 0 8.882-3.977 8.882-8.882v-17.765c0-4.906-3.977-8.882-8.882-8.882z" fill="url(#SVGID_2_)"/></g></g></g></svg>