<svg id="Capa_1" enable-background="new 0 0 512 512" height="512" viewBox="0 0 512 512" width="512" xmlns="http://www.w3.org/2000/svg" xmlns:xlink="http://www.w3.org/1999/xlink"><linearGradient id="SVGID_1_" gradientUnits="userSpaceOnUse" x1="256" x2="256" y1="512" y2="0"><stop offset="0" stop-color="#ffc8d1"/><stop offset="1" stop-color="#fff6f7"/></linearGradient><linearGradient id="SVGID_2_" gradientUnits="userSpaceOnUse" x1="107.602" x2="383.551" y1="404.398" y2="128.449"><stop offset="0" stop-color="#ffa68d"/><stop offset="1" stop-color="#fd3a84"/></linearGradient><g><circle cx="256" cy="256" fill="url(#SVGID_1_)" r="256"/></g><g><g><path d="m142.663 319.148c-1.908 2.09-2.689 4.961-2.134 7.737.382 1.865 4.042 18.563 15.041 29.544 10.981 10.99 27.688 14.651 29.562 15.032 2.796.575 5.667-.242 7.738-2.117l101.416-91.869-59.752-59.746zm102.746-65.118c3.47-3.47 9.093-3.47 12.56 0 3.47 3.469 3.47 9.093 0 12.561-3.468 3.469-9.091 3.469-12.56 0-3.47-3.469-3.47-9.093 0-12.561zm4.727-47.239c.356 1.422 1.245 2.665 2.312 3.731l49.031 49.031c1.065 1.066 2.307 1.954 3.73 2.308 7.282 1.955 14.568 3.021 21.85 3.021 17.943 0 35.53-6.04 49.742-17.587l-112.096-112.095c-15.987 19.896-21.495 46.543-14.569 71.591zm133.414-78.342c-28.955-29.135-75.145-31.088-106.411-6.041l112.452 112.452c25.047-31.266 23.095-77.454-6.041-106.411zm6.041 106.411c-1.956 2.31-3.908 4.441-6.042 6.573-2.13 2.132-4.441 4.263-6.749 5.863l6.749 6.751c3.398 3.394 8.92 3.695 12.614 0 3.376-3.553 3.376-9.06 0-12.613zm-112.452-112.451-6.571-6.573c-3.554-3.375-9.06-3.375-12.614 0-3.376 3.553-3.376 9.06 0 12.613l6.751 6.75c1.778-2.309 3.73-4.619 5.864-6.75 2.129-2.132 4.263-4.086 6.57-6.04zm-139.897 239.782-29.64 29.646c-3.47 3.47-3.47 9.091 0 12.56 3.469 3.469 9.09 3.47 12.56 0l29.64-29.645c-2.342-1.739-4.641-3.61-6.792-5.763-2.155-2.152-4.027-4.452-5.768-6.798z" fill="url(#SVGID_2_)"/></g></g></svg>