<svg id="Capa_1" enable-background="new 0 0 512 512" height="512" viewBox="0 0 512 512" width="512" xmlns="http://www.w3.org/2000/svg" xmlns:xlink="http://www.w3.org/1999/xlink"><linearGradient id="SVGID_1_" gradientUnits="userSpaceOnUse" x1="256" x2="256" y1="508.356" y2="49.176"><stop offset="0" stop-color="#ffedad"/><stop offset="1" stop-color="#ffffe5"/></linearGradient><linearGradient id="SVGID_2_" gradientUnits="userSpaceOnUse" x1="256" x2="256" y1="410.926" y2="90.118"><stop offset="0" stop-color="#feba00"/><stop offset="1" stop-color="#fd5900"/></linearGradient><g><circle cx="256" cy="256" fill="url(#SVGID_1_)" r="256"/><g fill="url(#SVGID_2_)"><path d="m229.018 306.859h53.965v91.141h-53.965z"/><circle cx="256" cy="225.912" r="26.982"/><path d="m406.865 237.541c-30.329-30.329-85.641-85.041-144.506-143.906-3.513-3.513-9.205-3.513-12.718 0-30.276 30.276-124.298 123.698-144.506 143.906-3.513 3.513-3.513 9.205 0 12.718s9.205 3.513 12.718 0l2.635-2.635v141.381c0 4.971 4.023 8.994 8.994 8.994h81.547v-100.134c0-4.971 4.023-8.994 8.994-8.994h71.953c4.971 0 8.994 4.023 8.994 8.994v100.135h81.547c4.971 0 8.994-4.023 8.994-8.994v-141.381l2.635 2.635c3.513 3.513 9.205 3.513 12.718 0s3.514-9.205.001-12.719zm-150.865 33.342c-24.795 0-44.971-20.175-44.971-44.971s20.175-44.971 44.971-44.971 44.971 20.175 44.971 44.971-20.176 44.971-44.971 44.971z"/></g></g></svg>