<svg id="Capa_1" enable-background="new 0 0 512 512" height="512" viewBox="0 0 512 512" width="512" xmlns="http://www.w3.org/2000/svg" xmlns:xlink="http://www.w3.org/1999/xlink"><linearGradient id="SVGID_1_" gradientUnits="userSpaceOnUse" x1="256" x2="256" y1="512" y2="0"><stop offset="0" stop-color="#addcff"/><stop offset=".5028" stop-color="#eaf6ff"/><stop offset="1" stop-color="#eaf6ff"/></linearGradient><linearGradient id="SVGID_2_" gradientUnits="userSpaceOnUse" x1="256" x2="256" y1="389.235" y2="122.765"><stop offset="0" stop-color="#00c0ff"/><stop offset="1" stop-color="#5558ff"/></linearGradient><g><circle cx="256" cy="256" fill="url(#SVGID_1_)" r="256"/></g><g><g><path d="m211.588 318.176c-9.812 0-17.765 7.953-17.765 17.765 0 9.81 7.953 17.765 17.765 17.765s17.765-7.955 17.765-17.765c0-9.812-7.953-17.765-17.765-17.765zm88.824 0c-9.812 0-17.765 7.953-17.765 17.765 0 9.81 7.953 17.765 17.765 17.765s17.765-7.955 17.765-17.765c-.001-9.812-7.954-17.765-17.765-17.765zm105.981 28.972-18.12-84.313c-5.274-29.691-31.019-51.247-61.214-51.247-9.706 0-19.395 2.298-28.009 6.653-11.551 5.841-22.879 9.271-34.168 10.485v-26.02c0-4.901 3.981-8.883 8.882-8.883h35.529c14.694 0 26.647-11.953 26.647-26.647s-11.953-26.647-26.647-26.647h-106.587c-4.901 0-8.882-3.981-8.882-8.882 0-4.91-3.973-8.882-8.882-8.882-4.91 0-8.882 3.973-8.882 8.882 0 14.694 11.953 26.647 26.647 26.647h106.588c4.901 0 8.882 3.981 8.882 8.882s-3.981 8.882-8.882 8.882h-35.529c-14.694 0-26.647 11.953-26.647 26.647v26.019c-11.279-1.215-22.609-4.645-34.176-10.484-8.744-4.415-18.164-6.653-28-6.653-30.195 0-55.94 21.555-61.153 50.935l-18.242 84.946c-.364 2.03-.546 4.12-.546 6.237 0 19.595 15.934 35.529 35.529 35.529 13.95 0 17.074-3.217 45.545-28.667-6.173-6.394-10.015-15.056-10.015-24.627 0-19.595 15.934-35.53 35.529-35.53s35.529 15.935 35.529 35.53h17.765c0-19.595 15.935-35.53 35.529-35.53 19.595 0 35.529 15.935 35.529 35.53 0 9.574-3.845 18.238-10.021 24.632 26.528 23.783 31.097 28.662 45.55 28.662 19.595 0 35.529-15.935 35.529-35.529 0-2.116-.182-4.206-.607-6.557zm-203.687-73.383h-8.882v8.882c0 4.91-3.973 8.882-8.882 8.882-4.91 0-8.882-3.973-8.882-8.882v-8.882h-8.882c-4.91 0-8.882-3.973-8.882-8.882s3.973-8.882 8.882-8.882h8.882v-8.882c0-4.91 3.973-8.882 8.882-8.882 4.91 0 8.882 3.973 8.882 8.882v8.881h8.882c4.91 0 8.882 3.973 8.882 8.882s-3.973 8.883-8.882 8.883zm35.529 0c-4.905 0-8.882-3.977-8.882-8.882 0-4.906 3.977-8.882 8.882-8.882s8.882 3.976 8.882 8.882c.001 4.905-3.976 8.882-8.882 8.882zm35.53 0c-4.905 0-8.882-3.977-8.882-8.882 0-4.906 3.977-8.882 8.882-8.882s8.882 3.976 8.882 8.882c0 4.905-3.977 8.882-8.882 8.882zm71.059 0h-8.882v8.882c0 4.91-3.973 8.882-8.882 8.882-4.91 0-8.882-3.973-8.882-8.882v-8.882h-8.882c-4.91 0-8.882-3.973-8.882-8.882s3.973-8.882 8.882-8.882h8.882v-8.882c0-4.91 3.973-8.882 8.882-8.882 4.91 0 8.882 3.973 8.882 8.882v8.881h8.882c4.91 0 8.882 3.973 8.882 8.882s-3.973 8.883-8.882 8.883z" fill="url(#SVGID_2_)"/></g></g></svg>