<svg id="Capa_1" enable-background="new 0 0 512 512" height="512" viewBox="0 0 512 512" width="512" xmlns="http://www.w3.org/2000/svg" xmlns:xlink="http://www.w3.org/1999/xlink"><linearGradient id="SVGID_1_" gradientUnits="userSpaceOnUse" x1="256" x2="256" y1="512" y2="0"><stop offset="0" stop-color="#ffedad"/><stop offset="1" stop-color="#ffffe5"/></linearGradient><linearGradient id="SVGID_2_" gradientUnits="userSpaceOnUse" x1="256" x2="256" y1="371.47" y2="140.53"><stop offset="0" stop-color="#feba00"/><stop offset="1" stop-color="#fd5900"/></linearGradient><g><g><circle cx="256" cy="256" fill="url(#SVGID_1_)" r="256"/></g><g><g><path d="m405.211 179.59c-1.683-2.221-4.311-3.53-7.095-3.53h-224.235l-8.31-29.084c-1.093-3.817-4.58-6.445-8.544-6.445h-43.145c-4.91 0-8.882 3.973-8.882 8.882s3.973 8.882 8.882 8.882h36.449c.478 1.671 41.211 144.266 43.83 153.437 1.093 3.816 4.58 6.445 8.544 6.445h159.881c3.964 0 7.451-2.628 8.544-6.445l35.529-124.353c.764-2.68.226-5.56-1.448-7.789zm-158.094 94.175c0 4.91-3.973 8.882-8.882 8.882s-8.882-3.973-8.882-8.882v-53.294c0-4.91 3.973-8.882 8.882-8.882s8.882 3.973 8.882 8.882zm44.411 0c0 4.91-3.973 8.882-8.882 8.882-4.91 0-8.882-3.973-8.882-8.882v-53.294c0-4.91 3.973-8.882 8.882-8.882 4.91 0 8.882 3.973 8.882 8.882zm44.412 0c0 4.91-3.973 8.882-8.882 8.882-4.91 0-8.882-3.973-8.882-8.882v-53.294c0-4.91 3.973-8.882 8.882-8.882 4.91 0 8.882 3.973 8.882 8.882zm-141.728 38.144c-.015-.052-.032-.111-.051-.177.02.067.036.124.051.177zm35.14 24.031c-9.812 0-17.765 7.953-17.765 17.765 0 9.811 7.953 17.765 17.765 17.765s17.765-7.954 17.765-17.765-7.953-17.765-17.765-17.765zm106.588 0c-9.812 0-17.765 7.953-17.765 17.765 0 9.811 7.953 17.765 17.765 17.765s17.765-7.954 17.765-17.765c-.001-9.811-7.954-17.765-17.765-17.765z" fill="url(#SVGID_2_)"/></g></g></g></svg>