<svg id="Capa_1" enable-background="new 0 0 513 513" height="512" viewBox="0 0 513 513" width="512" xmlns="http://www.w3.org/2000/svg" xmlns:xlink="http://www.w3.org/1999/xlink"><linearGradient id="SVGID_1_" gradientUnits="userSpaceOnUse" x1="256.5" x2="256.5" y1="512.5" y2=".5"><stop offset="0" stop-color="#addcff"/><stop offset=".5028" stop-color="#eaf6ff"/><stop offset="1" stop-color="#eaf6ff"/></linearGradient><linearGradient id="SVGID_2_" gradientUnits="userSpaceOnUse" x1="121.038" x2="412.791" y1="125.597" y2="417.35"><stop offset="0" stop-color="#5558ff"/><stop offset="1" stop-color="#00c0ff"/></linearGradient><g><g><path d="m513 256.5c0 141.385-114.615 256-256 256s-257-114.615-257-256 115.615-256 257-256 256 114.615 256 256z" fill="url(#SVGID_1_)"/></g><g><g><path d="m119.99 380.97-11.397 11.407c-3.458 3.461-3.458 9.067 0 12.527 3.457 3.461 9.059 3.461 12.516 0l11.351-11.36 61.832-28.162-46.203-46.24zm38.691-76.282 50.05 50.09 66.248-66.307-50.046-50.09zm222.782-135.331c-18.185-17.996-37.637-37.654-37.532-37.548-3.458-3.461-9.061-3.459-12.516 0l-93.966 94.044 50.046 50.09 62.595-62.65 12.529 12.541-68.857 68.91c-3.458 3.461-3.458 9.067 0 12.527 3.458 3.461 9.059 3.461 12.516 0l75.115-75.173c3.458-3.461 3.456-9.069 0-12.527l-18.787-18.804 18.857-18.874c3.431-3.433 3.483-9.05 0-12.536zm18.757-56.33c-9.992-10.036-27.66-10.036-37.653 0l-6.191 6.197c.022.021.05.037.071.058l37.515 37.531c.028.028.046.062.074.09l6.184-6.189c10.373-10.392 10.373-27.297 0-37.687z" fill="url(#SVGID_2_)"/></g></g></g></svg>