<svg id="Capa_1" enable-background="new 0 0 512 512" height="512" viewBox="0 0 512 512" width="512" xmlns="http://www.w3.org/2000/svg" xmlns:xlink="http://www.w3.org/1999/xlink"><linearGradient id="SVGID_1_" gradientUnits="userSpaceOnUse" x1="256" x2="256" y1="512" y2="0"><stop offset="0" stop-color="#c3ffe8"/><stop offset=".9973" stop-color="#f0fff4"/></linearGradient><linearGradient id="SVGID_2_" gradientUnits="userSpaceOnUse" x1="256" x2="256" y1="353.706" y2="158.294"><stop offset="0" stop-color="#9cffac"/><stop offset="1" stop-color="#00b59c"/></linearGradient><g><g><g><circle cx="256" cy="256" fill="url(#SVGID_1_)" r="256"/></g></g><g><g><path d="m282.647 256c0-11.565-7.448-21.332-17.765-25.011v50.022c10.317-3.679 17.765-13.446 17.765-25.011zm-53.294 0c0 11.565 7.448 21.332 17.765 25.011v-50.022c-10.317 3.679-17.765 13.446-17.765 25.011zm124.353 0c0 14.694 11.953 26.647 26.647 26.647h26.647v-53.294h-26.647c-14.694 0-26.647 11.953-26.647 26.647zm-195.412 0c0-14.694-11.953-26.647-26.647-26.647h-26.647v53.294h26.647c14.694 0 26.647-11.953 26.647-26.647zm239.824-97.706h-133.236v54.193c20.247 4.127 35.529 22.067 35.529 43.513s-15.283 39.386-35.529 43.513v54.193h133.235c4.91 0 8.882-3.973 8.882-8.882v-44.412h-26.647c-24.487 0-44.412-19.925-44.412-44.412s19.925-44.412 44.412-44.412h26.648v-44.412c0-4.909-3.973-8.882-8.882-8.882zm-293.118 8.883v44.412h26.647c24.487 0 44.412 19.925 44.412 44.412s-19.925 44.412-44.412 44.412h-26.647v44.412c0 4.91 3.973 8.882 8.882 8.882h133.235v-54.193c-20.247-4.127-35.529-22.067-35.529-43.513s15.283-39.386 35.529-43.513v-54.193h-133.235c-4.909-.001-8.882 3.972-8.882 8.882z" fill="url(#SVGID_2_)"/></g></g></g></svg>