<svg id="Capa_1" enable-background="new 0 0 512 512" height="512" viewBox="0 0 512 512" width="512" xmlns="http://www.w3.org/2000/svg" xmlns:xlink="http://www.w3.org/1999/xlink"><linearGradient id="SVGID_1_" gradientUnits="userSpaceOnUse" x1="256" x2="256" y1="512" y2="0"><stop offset="0" stop-color="#c3ffe8"/><stop offset=".9973" stop-color="#f0fff4"/></linearGradient><linearGradient id="SVGID_2_" gradientUnits="userSpaceOnUse" x1="256" x2="256" y1="407.019" y2="105"><stop offset="0" stop-color="#9cffac"/><stop offset="1" stop-color="#00b59c"/></linearGradient><g><circle cx="256" cy="256" fill="url(#SVGID_1_)" r="256"/></g><g><g><path d="m267.526 200.398c8.885-4.311 15.074-13.338 15.074-23.856 0-14.663-11.932-26.591-26.6-26.591s-26.6 11.928-26.6 26.591c0 10.518 6.189 19.545 15.074 23.856l-67.79 194.83c-2.486 7.234 5.674 14.886 12.971 10.491l66.35-40.136 66.34 40.136c7.335 4.417 15.402-3.255 12.971-10.491zm17.093 103.121-13.48-9.74 8.063-5.827zm-28.619-82.251 17.12 49.202-17.118 12.371-17.121-12.372zm-23.202 66.681 8.069 5.83-13.49 9.75zm-31.269 89.869 12.991-37.333 24.363 14.739zm24.234-51.25 30.241-21.854 30.25 21.854-30.248 18.298zm47.367 28.657 24.354-14.732 12.986 37.324zm62.636-178.683c0 21.337-8.295 41.367-23.344 56.411-3.464 3.462-3.464 9.072 0 12.534 3.463 3.462 9.074 3.462 12.538 0 18.409-18.385 28.54-42.874 28.54-68.945s-10.131-50.56-28.54-68.945c-3.464-3.462-9.074-3.462-12.538 0s-3.464 9.072 0 12.534c15.049 15.044 23.344 35.074 23.344 56.411zm-48.421 43.869c3.464 3.462 9.074 3.462 12.538 0 11.707-11.703 18.149-27.275 18.149-43.869s-6.442-32.166-18.149-43.869c-3.464-3.462-9.075-3.462-12.538 0s-3.464 9.071 0 12.534c8.365 8.354 12.954 19.485 12.954 31.335s-4.589 22.982-12.954 31.335c-3.463 3.462-3.463 9.071 0 12.534zm-87.767 25.076c3.464-3.462 3.464-9.072 0-12.534-15.049-15.044-23.344-35.074-23.344-56.411s8.295-41.367 23.344-56.411c3.464-3.462 3.464-9.072 0-12.534s-9.075-3.462-12.538 0c-18.409 18.386-28.54 42.874-28.54 68.945s10.131 50.56 28.54 68.945c3.463 3.463 9.075 3.463 12.538 0zm12.538-25.076c3.464 3.462 9.075 3.462 12.538 0s3.464-9.071 0-12.534c-8.365-8.353-12.954-19.485-12.954-31.335s4.589-22.981 12.954-31.335c3.464-3.462 3.464-9.071 0-12.534s-9.075-3.462-12.538 0c-11.707 11.703-18.149 27.275-18.149 43.869s6.442 32.166 18.149 43.869z" fill="url(#SVGID_2_)"/></g></g></svg>