<svg id="Capa_1" enable-background="new 0 0 512 512" height="512" viewBox="0 0 512 512" width="512" xmlns="http://www.w3.org/2000/svg" xmlns:xlink="http://www.w3.org/1999/xlink"><linearGradient id="SVGID_1_" gradientUnits="userSpaceOnUse" x1="256" x2="256" y1="512" y2="0"><stop offset="0" stop-color="#ffc8d1"/><stop offset="1" stop-color="#fff6f7"/></linearGradient><linearGradient id="SVGID_2_" gradientUnits="userSpaceOnUse" x1="256" x2="256" y1="389" y2="123"><stop offset="0" stop-color="#ffa68d"/><stop offset="1" stop-color="#fd3a84"/></linearGradient><g><g><circle cx="256" cy="256" fill="url(#SVGID_1_)" r="256"/></g><g><g><g><g><path d="m400.997 247.618s-6.506-2.251-18.667-5.048c-26.334-6.009-69.636-13.17-126.33-13.17s-99.996 7.161-126.348 13.17c-12.144 2.796-18.649 5.048-18.649 5.048-3.592 1.23-6.003 4.598-6.003 8.382v44.333h302v-44.333c0-3.784-2.411-7.152-6.003-8.382zm-295.997 97.049v35.467c0 4.901 3.973 8.867 8.882 8.867 4.91 0 8.882-3.966 8.882-8.867v-26.6h266.471v26.6c0 4.901 3.973 8.867 8.882 8.867 4.91 0 8.882-3.966 8.882-8.867v-62.067h-301.999zm151-133c58.36 0 103.067 7.403 130.286 13.621 1.115.255 1.921.475 2.949.722v-76.41c0-4.901-3.973-8.867-8.882-8.867-4.91 0-8.882 3.966-8.882 8.867v3.188c-22.038-10.621-68.315-29.788-115.471-29.788s-93.433 19.167-115.471 29.788v-3.188c0-4.901-3.973-8.867-8.882-8.867-4.91 0-8.882 3.966-8.882 8.867v76.399c1.011-.243 1.803-.46 2.897-.712 27.271-6.217 71.996-13.62 130.338-13.62z" fill="url(#SVGID_2_)"/></g></g></g></g></g></svg>