<svg id="Capa_1" enable-background="new 0 0 512 512" height="512" viewBox="0 0 512 512" width="512" xmlns="http://www.w3.org/2000/svg" xmlns:xlink="http://www.w3.org/1999/xlink"><linearGradient id="SVGID_1_" gradientUnits="userSpaceOnUse" x1="256" x2="256" y1="512" y2="0"><stop offset="0" stop-color="#ffbef9"/><stop offset="1" stop-color="#fff1ff"/></linearGradient><linearGradient id="SVGID_2_" gradientUnits="userSpaceOnUse" x1="256" x2="256" y1="354" y2="158"><stop offset="0" stop-color="#ff81ff"/><stop offset="1" stop-color="#a93aff"/></linearGradient><g><g><circle cx="256" cy="256" fill="url(#SVGID_1_)" r="256"/></g><g><g><path d="m141.518 341.01c-2.255 4.367-.538 9.744 3.817 11.998 1.301.679 2.706.992 4.077.992 3.209 0 6.315-1.757 7.893-4.829l6.678-12.99h-19.983zm194.423-102.828c0-14.738 11.953-26.727 26.647-26.727h26.647v-26.727c0-14.738-11.953-26.727-26.647-26.727h-88.824c-3.131 0-6.088.673-8.882 1.674v87.417h71.059zm-159.882 0v8.909h71.059v-87.417c-2.794-1.001-5.751-1.674-8.882-1.674h-88.824c-14.694 0-26.647 11.989-26.647 26.727v26.727h26.647c14.694.001 26.647 11.99 26.647 26.728zm192.02 98h-19.864l6.428 12.894c1.561 3.123 4.701 4.924 7.946 4.924 1.336 0 2.689-.304 3.973-.94 4.389-2.201 6.159-7.552 3.973-11.954zm30.039-106.909h-35.529c-4.91 0-8.882 3.985-8.882 8.909v26.727h-195.413v-26.727c0-4.924-3.973-8.909-8.882-8.909h-35.529c-4.91 0-8.882 3.985-8.882 8.909v53.454c0 14.738 11.953 26.727 26.647 26.727h248.706c14.694 0 26.647-11.989 26.647-26.727v-53.454c-.001-4.925-3.974-8.909-8.883-8.909z" fill="url(#SVGID_2_)"/></g></g></g></svg>