<svg id="Capa_1" enable-background="new 0 0 512 512" height="512" viewBox="0 0 512 512" width="512" xmlns="http://www.w3.org/2000/svg" xmlns:xlink="http://www.w3.org/1999/xlink"><linearGradient id="SVGID_1_" gradientUnits="userSpaceOnUse" x1="256" x2="256" y1="512" y2="0"><stop offset="0" stop-color="#c3ffe8"/><stop offset=".9973" stop-color="#f0fff4"/></linearGradient><linearGradient id="SVGID_2_" gradientUnits="userSpaceOnUse" x1="256" x2="256" y1="407" y2="105"><stop offset="0" stop-color="#9cffac"/><stop offset="1" stop-color="#00b59c"/></linearGradient><g><g><circle cx="256" cy="256" fill="url(#SVGID_1_)" r="256"/></g><g><g><path d="m200.792 261.147 15.598-48.018-19.803-27.251h-74.201c-6.764 12.834-11.731 26.737-14.569 41.407l60.922 44.28zm46.326 46.555-40.833-29.661-32.061 10.42-24.312 74.838c9.789 9.678 20.896 18.01 33.015 24.744l64.19-46.632v-33.709zm58.597-29.661-40.833 29.661v33.709l64.185 46.636c12.122-6.735 23.233-15.069 33.023-24.75l-24.313-74.836zm-10.106-64.912 15.598 48.018 32.053 10.418 60.923-44.274c-2.839-14.673-7.806-28.577-14.57-41.413h-74.201zm82.932-45.016c-19.333-26.877-47.189-47.179-79.659-56.821l18.462 56.821zm28.03 79.399-51.303 37.286 20.43 62.889c19.544-25.454 31.302-57.187 31.302-91.687 0-2.865-.271-5.662-.429-8.488zm-301.141-.004c-.158 2.828-.43 5.625-.43 8.492 0 34.5 11.758 66.234 31.304 91.689l20.429-62.891zm127.254-27.037-14.399 44.333 37.715 27.393 37.715-27.393-14.399-44.333zm-31.327 176.138c16.971 6.621 35.358 10.391 54.643 10.391 19.283 0 37.668-3.77 54.638-10.389l-54.638-39.696zm11.763-285.317c-32.472 9.643-60.328 29.944-79.661 56.821h61.197zm17.65 91.414h50.46l19.815-27.267-22.266-68.531c-7.45-1.136-15.017-1.908-22.779-1.908-7.761 0-15.327.772-22.776 1.907l-22.269 68.531z" fill="url(#SVGID_2_)"/></g></g></g></svg>