<svg id="Capa_1" enable-background="new 0 0 512 512" height="512" viewBox="0 0 512 512" width="512" xmlns="http://www.w3.org/2000/svg" xmlns:xlink="http://www.w3.org/1999/xlink"><linearGradient id="SVGID_1_" gradientUnits="userSpaceOnUse" x1="256" x2="256" y1="512" y2="0"><stop offset="0" stop-color="#ffedad"/><stop offset="1" stop-color="#ffffe5"/></linearGradient><linearGradient id="SVGID_2_" gradientUnits="userSpaceOnUse" x1="256" x2="256" y1="407" y2="105"><stop offset="0" stop-color="#ffde00"/><stop offset="1" stop-color="#fd5900"/></linearGradient><g><g><circle cx="256" cy="256" fill="url(#SVGID_1_)" r="256"/></g><g><g><g><path d="m368.571 282.647h11.782c4.909 0 8.882-3.973 8.882-8.882v-35.529c0-34.28-27.896-62.177-62.177-62.177h-27.324c-11.108-19.187-30.743-32.133-52.617-34.931v-18.363h44.412c4.91 0 8.882-3.973 8.882-8.882s-3.972-8.883-8.882-8.883h-106.588c-4.91 0-8.882 3.973-8.882 8.882s3.973 8.882 8.882 8.882h44.412v18.363c-21.874 2.797-41.509 15.744-52.618 34.931h-53.971v-26.647c0-4.91-3.973-8.882-8.882-8.882-4.91 0-8.882 3.973-8.882 8.882v124.353c0 4.91 3.973 8.882 8.882 8.882 4.91 0 8.882-3.973 8.882-8.882v-26.647h53.971c12.595 21.755 36.145 35.529 61.5 35.529 25.354 0 48.905-13.774 61.5-35.529h18.441v26.647c0 4.91 3.973 8.882 8.882 8.882h11.782c-14.629 18.441-38.429 51.403-38.429 71.059 0 29.388 23.906 53.294 53.294 53.294 29.389.001 53.295-23.905 53.295-53.293 0-19.656-23.8-52.618-38.429-71.059z" fill="url(#SVGID_2_)"/></g></g></g></g></svg>