<svg id="Capa_1" enable-background="new 0 0 512 512" height="512" viewBox="0 0 512 512" width="512" xmlns="http://www.w3.org/2000/svg" xmlns:xlink="http://www.w3.org/1999/xlink"><linearGradient id="SVGID_1_" gradientUnits="userSpaceOnUse" x1="256" x2="256" y1="512" y2="0"><stop offset="0" stop-color="#ffe59a"/><stop offset="1" stop-color="#ffffd5"/></linearGradient><linearGradient id="SVGID_2_" gradientUnits="userSpaceOnUse" x1="256" x2="256" y1="407" y2="105"><stop offset="0" stop-color="#ffde00"/><stop offset="1" stop-color="#fd5900"/></linearGradient><g><g><circle cx="256" cy="256" fill="url(#SVGID_1_)" r="256"/></g><g><g><path d="m238.182 105.008c-4.925 0-8.909 3.973-8.909 8.882v62.175h-17.818v-62.175c0-4.909-3.985-8.882-8.909-8.882s-8.909 3.973-8.909 8.882v62.175h-17.818v-62.175c0-4.909-3.985-8.882-8.909-8.882s-8.91 3.973-8.91 8.882v88.821c0 11.58 7.448 21.459 17.818 25.128v152.514c0 14.694 11.989 26.646 26.727 26.646s26.727-11.953 26.727-26.646v-152.513c10.371-3.669 17.818-13.549 17.818-25.128v-88.822c.001-4.909-3.984-8.882-8.908-8.882zm56.273.46c-2.732-.928-5.725-.451-8.022 1.214-2.332 1.674-3.706 4.354-3.706 7.208v266.463c0 14.694 11.989 26.646 26.727 26.646s26.727-11.953 26.727-26.646v-102.907l15.208-15.162c1.67-1.665 2.61-3.921 2.61-6.28.001-129.268-57.108-149.73-59.544-150.536z" fill="url(#SVGID_2_)"/></g></g></g></svg>