<svg id="Capa_1" enable-background="new 0 0 512 512" height="512" viewBox="0 0 512 512" width="512" xmlns="http://www.w3.org/2000/svg" xmlns:xlink="http://www.w3.org/1999/xlink"><linearGradient id="SVGID_1_" gradientUnits="userSpaceOnUse" x1="256" x2="256" y1="512" y2="0"><stop offset="0" stop-color="#ffc8d1"/><stop offset="1" stop-color="#fff6f7"/></linearGradient><linearGradient id="SVGID_2_" gradientUnits="userSpaceOnUse" x1="256" x2="256" y1="407" y2="105"><stop offset="0" stop-color="#ffa68d"/><stop offset="1" stop-color="#fd3a84"/></linearGradient><g><circle cx="256" cy="256" fill="url(#SVGID_1_)" r="256"/></g><g><g><path d="m367.544 124.257c-1.18-.79-29.222-19.257-58.236-19.257s-57.056 18.467-58.236 19.257c-.243.165-24.693 16.272-48.38 16.272-18.031 0-36.555-9.389-44.423-13.894v-12.753c0-4.91-3.974-8.882-8.885-8.882s-8.885 3.973-8.885 8.882v284.235c0 4.91 3.974 8.882 8.885 8.882s8.885-3.973 8.885-8.882v-109.334c11.124 5.386 27.526 11.628 44.423 11.628 29.014 0 57.056-18.467 58.236-19.256.243-.165 24.693-16.273 48.38-16.273 23.565 0 48.137 16.117 48.397 16.281 2.724 1.813 6.212 1.969 9.11.425 2.881-1.553 4.685-4.554 4.685-7.824v-142.117c0-2.966-1.492-5.742-3.956-7.39z" fill="url(#SVGID_2_)"/></g></g></svg>