<svg id="Capa_1" enable-background="new 0 0 512 512" height="512" viewBox="0 0 512 512" width="512" xmlns="http://www.w3.org/2000/svg" xmlns:xlink="http://www.w3.org/1999/xlink"><linearGradient id="SVGID_1_" gradientUnits="userSpaceOnUse" x1="256" x2="256" y1="512" y2="0"><stop offset="0" stop-color="#addcff"/><stop offset=".5028" stop-color="#eaf6ff"/><stop offset="1" stop-color="#eaf6ff"/></linearGradient><linearGradient id="SVGID_2_" gradientUnits="userSpaceOnUse" x1="256" x2="256" y1="105" y2="407"><stop offset="0" stop-color="#5558ff"/><stop offset="1" stop-color="#00c0ff"/></linearGradient><g><g><circle cx="256" cy="256" fill="url(#SVGID_1_)" r="256"/></g><g><g><path d="m247.118 220.471c0 4.901 3.99 8.882 8.882 8.882s8.882-3.981 8.882-8.882v-8.882h-8.882c-4.892-.001-8.882 3.981-8.882 8.882zm133.235-115.471h-248.706c-14.694 0-26.647 11.953-26.647 26.647v177.647c0 14.694 11.953 26.647 26.647 26.647h248.706c14.694 0 26.647-11.953 26.647-26.647v-177.647c0-14.694-11.953-26.647-26.647-26.647zm-88.824 142.118c-6.849 0-13.039-2.669-17.765-6.931-4.725 4.261-10.915 6.931-17.765 6.931-14.694 0-26.647-11.953-26.647-26.647s11.953-26.647 26.647-26.647h17.765c4.91 0 8.882 3.973 8.882 8.882v17.765c0 4.901 3.99 8.882 8.882 8.882s8.882-3.981 8.882-8.882c0-24.487-19.916-44.412-44.412-44.412s-44.412 19.925-44.412 44.412 19.916 44.412 44.412 44.412c5.083 0 10.079-.85 14.815-2.524 4.632-1.648 9.68.772 11.346 5.413 1.631 4.623-.798 9.698-5.413 11.328-6.662 2.359-13.636 3.548-20.749 3.548-34.28 0-62.177-27.896-62.177-62.176s27.9-62.178 62.18-62.178 62.177 27.896 62.177 62.176c0 14.695-11.954 26.648-26.648 26.648zm35.53 142.117h-26.647v-35.53h-88.823v35.53h-26.647c-4.91 0-8.882 3.973-8.882 8.882 0 4.91 3.973 8.882 8.882 8.882h142.118c4.91 0 8.882-3.973 8.882-8.882-.001-4.909-3.974-8.882-8.883-8.882z" fill="url(#SVGID_2_)"/></g></g></g></svg>