<svg id="Capa_1" enable-background="new 0 0 512 512" height="512" viewBox="0 0 512 512" width="512" xmlns="http://www.w3.org/2000/svg" xmlns:xlink="http://www.w3.org/1999/xlink"><linearGradient id="SVGID_1_" gradientUnits="userSpaceOnUse" x1="256" x2="256" y1="512" y2="0"><stop offset="0" stop-color="#ffedad"/><stop offset="1" stop-color="#ffffe5"/></linearGradient><linearGradient id="SVGID_2_" gradientUnits="userSpaceOnUse" x1="256" x2="256" y1="411.726" y2="99.81"><stop offset="0" stop-color="#feba00"/><stop offset="1" stop-color="#fd5900"/></linearGradient><g><circle cx="256" cy="256" fill="url(#SVGID_1_)" r="256"/><g fill="url(#SVGID_2_)"><path d="m247.006 300.971h17.988v35.977h-17.988z"/><path d="m139.076 237.412v163.094c0 4.971 4.023 8.994 8.994 8.994h215.86c4.971 0 8.994-4.023 8.994-8.994v-163.094c0-4.971-4.023-8.994-8.994-8.994h-215.86c-4.971 0-8.994 4.023-8.994 8.994zm89.942 54.565c0-4.971 4.023-8.994 8.994-8.994h35.977c4.971 0 8.994 4.023 8.994 8.994v53.965c0 4.971-4.023 8.994-8.994 8.994h-35.977c-4.971 0-8.994-4.023-8.994-8.994z"/><path d="m354.936 210.43v-8.994c0-54.553-44.382-98.936-98.936-98.936s-98.936 44.382-98.936 98.936v8.994h35.977v-8.994c0-34.712 28.247-62.959 62.959-62.959s62.959 28.247 62.959 62.959v8.994z"/></g></g></svg>