<svg id="Capa_1" enable-background="new 0 0 512 512" height="512" viewBox="0 0 512 512" width="512" xmlns="http://www.w3.org/2000/svg" xmlns:xlink="http://www.w3.org/1999/xlink"><linearGradient id="SVGID_1_" gradientUnits="userSpaceOnUse" x1="256" x2="256" y1="512" y2="0"><stop offset="0" stop-color="#addcff"/><stop offset=".5028" stop-color="#eaf6ff"/><stop offset="1" stop-color="#eaf6ff"/></linearGradient><linearGradient id="SVGID_2_" gradientUnits="userSpaceOnUse" x1="256" x2="256" y1="354" y2="158"><stop offset="0" stop-color="#00c0ff"/><stop offset="1" stop-color="#5558ff"/></linearGradient><g><g><circle cx="256" cy="256" fill="url(#SVGID_1_)" r="256"/></g><g><g><path d="m388.28 184.17c-5.357-3.093-11.362-4.514-17.635-4.46-.299 6.106-.388 12.388-1.075 18.162 3.606-.227 7.029.111 9.83 1.732 6.868 3.976 12.271 16.757 8.733 32.591-1.817 8.127-9.653 30.087-41.394 43.286-4.144 8.412-8.568 15.903-13.068 22.903 56.248-13.754 69.083-50.15 71.797-62.292 4.882-21.879-2.186-43.23-17.188-51.922zm-43.516-26.17h-230.884c-4.908 0-8.88 3.985-8.88 8.909 0 81.339 38.92 132.775 62.109 156.205 5.758 5.812 8.932 13.538 8.932 21.977 0 4.924 3.972 8.909 8.88 8.909h88.801c4.908 0 8.88-4.22 8.88-9.144 0-8.196 3.174-15.922 8.923-21.742 23.198-23.43 62.118-74.866 62.118-156.205.001-4.924-3.971-8.909-8.879-8.909z" fill="url(#SVGID_2_)"/></g></g></g></svg>