<svg id="Capa_1" enable-background="new 0 0 512 512" height="512" viewBox="0 0 512 512" width="512" xmlns="http://www.w3.org/2000/svg" xmlns:xlink="http://www.w3.org/1999/xlink"><linearGradient id="SVGID_1_" gradientUnits="userSpaceOnUse" x1="256" x2="256" y1="512" y2="0"><stop offset="0" stop-color="#c3ffe8"/><stop offset=".9973" stop-color="#f0fff4"/></linearGradient><linearGradient id="SVGID_2_" gradientUnits="userSpaceOnUse" x1="256" x2="256" y1="407" y2="105.002"><stop offset="0" stop-color="#9cffac"/><stop offset="1" stop-color="#00b59c"/></linearGradient><g><circle cx="256" cy="256" fill="url(#SVGID_1_)" r="256"/></g><g><g><path d="m248.714 314.366c1.666 2.385 4.389 3.808 7.286 3.808s5.621-1.422 7.286-3.808l58.359-83.791c9.351-13.445 14.295-29.223 14.295-45.634 0-44.081-35.858-79.939-79.939-79.939s-79.939 35.858-79.939 79.939c0 16.412 4.944 32.189 14.295 45.634zm7.286-164.953c19.586 0 35.529 15.934 35.529 35.528 0 19.595-15.943 35.529-35.529 35.529s-35.529-15.934-35.529-35.529c0-19.594 15.943-35.528 35.529-35.528zm0 53.293c9.802 0 17.764-7.972 17.764-17.765 0-9.792-7.963-17.764-17.764-17.764s-17.764 7.972-17.764 17.764c0 9.793 7.962 17.765 17.764 17.765zm150.303 191.946-20.54-48.617c-.815-1.9-2.255-3.461-4.094-4.416l-68.281-35.511c-2.845-1.5-6.297-1.31-9.021.486l-48.367 32.241-48.366-32.241c-2.758-1.839-6.263-1.986-9.16-.425-.416.234-42.589 23.029-67.952 35.346-1.926.937-3.452 2.55-4.302 4.537l-20.522 48.609c-1.423 3.366-.625 7.26 1.995 9.811 2.572 2.532 6.474 3.25 9.854 1.734l74.475-33.681 59.642 33.343c2.706 1.509 5.968 1.509 8.674 0l59.642-33.343 74.475 33.681c3.331 1.501 7.251.815 9.854-1.734 2.618-2.551 3.416-6.445 1.994-9.82z" fill="url(#SVGID_2_)"/></g></g></svg>