<svg id="Capa_1" enable-background="new 0 0 512 512" height="512" viewBox="0 0 512 512" width="512" xmlns="http://www.w3.org/2000/svg" xmlns:xlink="http://www.w3.org/1999/xlink"><linearGradient id="SVGID_1_" gradientUnits="userSpaceOnUse" x1="256" x2="256" y1="512" y2="0"><stop offset="0" stop-color="#addcff"/><stop offset=".5028" stop-color="#eaf6ff"/><stop offset="1" stop-color="#eaf6ff"/></linearGradient><linearGradient id="SVGID_2_" gradientUnits="userSpaceOnUse" x1="256" x2="256" y1="407" y2="105"><stop offset="0" stop-color="#00c0ff"/><stop offset="1" stop-color="#5558ff"/></linearGradient><g><circle cx="256" cy="256" fill="url(#SVGID_1_)" r="256"/></g><g><g><path d="m350.526 221.112c-1.474-2.937-4.474-4.791-7.761-4.791h-43.382v69.337h83.443zm-189.967 64.547h86.765v-17.334h-86.765zm173.529 52.004c-19.451 0-34.706 15.797-34.706 34.668 0 19.121 15.574 34.669 34.706 34.669s34.706-15.548 34.706-34.669c0-18.74-15.21-34.668-34.706-34.668zm-156.176 0c-19.451 0-34.706 15.797-34.706 34.668 0 19.121 15.574 34.669 34.706 34.669s34.706-15.548 34.706-34.669c0-18.74-15.21-34.668-34.706-34.668zm112.794-34.669c-4.796 0-8.676-3.876-8.676-8.667v-78.005h-71.83l-6.064-18.162c2.788.455 5.601.827 8.482.827 22.064 0 34.333-12.671 38.366-16.954 2.067-1.481 3.406-3.8 3.61-6.339.22-2.548-.695-5.053-2.508-6.856l-24.539-24.513 8.678-8.674c3.389-3.386 3.389-8.879 0-12.256-3.389-3.386-8.88-3.386-12.269 0l-8.677 8.674-24.537-24.511c-1.796-1.812-4.423-2.785-6.931-2.514-2.559.22-4.948 1.54-6.423 3.631-4.152 4.038-16.828 16.319-16.828 38.309 0 11.894 4.175 23.035 11.473 32.181l-24.792 37.156h-30.063c-4.796 0-8.676 3.876-8.676 8.667v138.675c0 4.791 3.881 8.667 8.676 8.667h8.677c0-28.458 22.88-52.003 52.059-52.003 28.942 0 52.059 23.579 52.059 52.003h52.059c0-28.458 22.881-52.003 52.059-52.003 28.942 0 52.059 23.579 52.059 52.003h8.677c4.796 0 8.677-3.876 8.677-8.667v-60.67h-112.798zm-26.03-8.667c0 4.791-3.881 8.667-8.676 8.667h-104.118c-4.796 0-8.676-3.876-8.676-8.667v-34.669c0-4.791 3.881-8.667 8.676-8.667h104.118c4.796 0 8.676 3.877 8.676 8.667z" fill="url(#SVGID_2_)"/></g></g></svg>