<svg id="Capa_1" enable-background="new 0 0 512 512" height="512" viewBox="0 0 512 512" width="512" xmlns="http://www.w3.org/2000/svg" xmlns:xlink="http://www.w3.org/1999/xlink"><linearGradient id="SVGID_1_" gradientUnits="userSpaceOnUse" x1="256" x2="256" y1="512" y2="0"><stop offset="0" stop-color="#addcff"/><stop offset=".5028" stop-color="#eaf6ff"/><stop offset="1" stop-color="#eaf6ff"/></linearGradient><linearGradient id="SVGID_2_" gradientUnits="userSpaceOnUse" x1="256" x2="256" y1="389.5" y2="122.5"><stop offset="0" stop-color="#00c0ff"/><stop offset="1" stop-color="#5558ff"/></linearGradient><g><circle cx="256" cy="256" fill="url(#SVGID_1_)" r="256"/></g><g><g><path d="m264.882 193.7h-53.294v53.4h53.294zm-159.882 115.682v62.353c0 9.811 7.954 17.765 17.765 17.765s17.765-7.954 17.765-17.765v-71.235h-26.647c-4.906 0-8.883 3.977-8.883 8.882zm293.118-186.882h-230.942c-4.905 0-8.882 3.984-8.882 8.9v240.3c0 6.513-1.882 12.542-4.942 17.8h218.119c19.622 0 35.529-15.939 35.529-35.6v-222.5c0-4.916-3.977-8.9-8.882-8.9zm-204.294 62.3c0-4.915 3.977-8.9 8.882-8.9h71.059c4.906 0 8.882 3.985 8.882 8.9v71.2c0 4.916-3.977 8.9-8.882 8.9h-71.059c-4.906 0-8.882-3.984-8.882-8.9zm168.764 151.3h-159.882c-4.91 0-8.882-3.981-8.882-8.9s3.973-8.9 8.882-8.9h159.882c4.91 0 8.882 3.981 8.882 8.9.001 4.919-3.972 8.9-8.882 8.9zm0-35.6h-159.882c-4.91 0-8.882-3.98-8.882-8.9s3.973-8.9 8.882-8.9h159.882c4.91 0 8.882 3.98 8.882 8.9s-3.972 8.9-8.882 8.9zm0-35.6h-53.294c-4.91 0-8.882-3.98-8.882-8.9s3.973-8.9 8.882-8.9h53.294c4.91 0 8.882 3.98 8.882 8.9s-3.972 8.9-8.882 8.9zm0-35.6h-53.294c-4.91 0-8.882-3.98-8.882-8.9s3.973-8.9 8.882-8.9h53.294c4.91 0 8.882 3.98 8.882 8.9s-3.972 8.9-8.882 8.9zm0-35.6h-53.294c-4.91 0-8.882-3.981-8.882-8.9s3.973-8.9 8.882-8.9h53.294c4.91 0 8.882 3.981 8.882 8.9.001 4.919-3.972 8.9-8.882 8.9z" fill="url(#SVGID_2_)"/></g></g></svg>