<svg id="Capa_1" enable-background="new 0 0 512 512" height="512" viewBox="0 0 512 512" width="512" xmlns="http://www.w3.org/2000/svg" xmlns:xlink="http://www.w3.org/1999/xlink"><linearGradient id="SVGID_1_" gradientUnits="userSpaceOnUse" x1="256" x2="256" y1="512" y2="0"><stop offset="0" stop-color="#c3ffe8"/><stop offset=".9973" stop-color="#f0fff4"/></linearGradient><linearGradient id="SVGID_2_" gradientUnits="userSpaceOnUse" x1="256" x2="256" y1="407" y2="105"><stop offset="0" stop-color="#9cffac"/><stop offset="1" stop-color="#00b59c"/></linearGradient><g><g><circle cx="256" cy="256" fill="url(#SVGID_1_)" r="256"/></g><g><g><path d="m167.106 398.855c.382 4.606 4.229 8.145 8.858 8.145h160.071c4.629 0 8.476-3.539 8.858-8.145l15.624-187.267h-209.035zm121-107.169c4.221-2.524 9.674-1.154 12.202 3.045l16.674 27.757c1.65 2.75 1.693 6.167.113 8.952s-4.533 4.502-7.738 4.502h-33.348c-4.915 0-8.893-3.973-8.893-8.882 0-4.91 3.977-8.882 8.893-8.882h17.638l-8.589-14.304c-2.527-4.208-1.164-9.664 3.048-12.188zm-59.74-24.713 20.009-33.309c3.213-5.343 12.037-5.343 15.25 0l20.009 33.309c2.527 4.207 1.164 9.663-3.048 12.187-4.201 2.518-9.67 1.169-12.202-3.045l-12.384-20.618-12.384 20.619c-2.527 4.207-7.972 5.56-12.202 3.045-4.212-2.525-5.575-7.981-3.048-12.188zm-33.348 55.515 16.674-27.757c2.527-4.198 7.972-5.569 12.202-3.045 4.212 2.524 5.575 7.98 3.048 12.187l-8.589 14.304h17.638c4.915 0 8.893 3.973 8.893 8.882 0 4.91-3.977 8.882-8.893 8.882h-33.348c-3.205 0-6.157-1.717-7.738-4.502s-1.537-6.202.113-8.951zm176.589-181.959h-71.143v-26.647c0-4.91-3.977-8.882-8.893-8.882h-71.143c-4.915 0-8.893 3.973-8.893 8.882v26.647h-71.143c-4.915 0-8.893 3.973-8.893 8.882v35.529c0 4.91 3.977 8.882 8.893 8.882h231.214c4.915 0 8.893-3.973 8.893-8.882v-35.529c.001-4.909-3.976-8.882-8.892-8.882zm-88.928 0h-53.357v-17.765h53.357z" fill="url(#SVGID_2_)"/></g></g></g></svg>