<svg id="Capa_1" enable-background="new 0 0 512 512" height="512" viewBox="0 0 512 512" width="512" xmlns="http://www.w3.org/2000/svg" xmlns:xlink="http://www.w3.org/1999/xlink"><linearGradient id="SVGID_1_" gradientUnits="userSpaceOnUse" x1="256" x2="256" y1="512" y2="0"><stop offset="0" stop-color="#ffe59a"/><stop offset="1" stop-color="#ffffd5"/></linearGradient><linearGradient id="SVGID_2_" gradientUnits="userSpaceOnUse" x1="256" x2="256" y1="389.5" y2="122.5"><stop offset="0" stop-color="#ffde00"/><stop offset="1" stop-color="#fd5900"/></linearGradient><g><circle cx="256" cy="256" fill="url(#SVGID_1_)" r="256"/></g><g><g><path d="m398.118 193.715h-26.647v-26.698c0-4.354-3.14-8.065-7.425-8.778l-213.176-35.597c-4.753-.886-9.403 2.459-10.218 7.318-.815 4.849 2.463 9.429 7.304 10.238l205.751 34.354v19.163h-239.825c-4.91 0-8.882 3.98-8.882 8.899v177.986c0 4.919 3.973 8.899 8.882 8.899h284.235c4.91 0 8.882-3.98 8.882-8.899v-177.985c.001-4.919-3.972-8.9-8.881-8.9zm-124.353 160.188h-106.588c-4.91 0-8.882-3.98-8.882-8.899s3.973-8.899 8.882-8.899h106.588c4.91 0 8.882 3.98 8.882 8.899s-3.973 8.899-8.882 8.899zm0-35.597h-106.588c-4.91 0-8.882-3.98-8.882-8.899s3.973-8.899 8.882-8.899h106.588c4.91 0 8.882 3.98 8.882 8.899s-3.973 8.899-8.882 8.899zm53.294 35.597c-14.694 0-26.647-11.976-26.647-26.698s11.953-26.698 26.647-26.698 26.647 11.976 26.647 26.698-11.953 26.698-26.647 26.698zm26.647-80.094c0 4.919-3.973 8.899-8.882 8.899h-177.647c-4.91 0-8.882-3.98-8.882-8.899v-35.597c0-4.919 3.973-8.899 8.882-8.899h177.647c4.91 0 8.882 3.98 8.882 8.899zm-177.647-8.899h35.53v-17.799h-35.53zm151 53.396c-4.892 0-8.882 3.989-8.882 8.899s3.99 8.899 8.882 8.899 8.882-3.989 8.882-8.899-3.99-8.899-8.882-8.899zm-97.706-53.396h106.588v-17.799h-106.588z" fill="url(#SVGID_2_)"/></g></g></svg>