<svg id="Capa_1" enable-background="new 0 0 512 512" height="512" viewBox="0 0 512 512" width="512" xmlns="http://www.w3.org/2000/svg" xmlns:xlink="http://www.w3.org/1999/xlink"><linearGradient id="SVGID_1_" gradientUnits="userSpaceOnUse" x1="256" x2="256" y1="512" y2="0"><stop offset="0" stop-color="#ffc8d1"/><stop offset="1" stop-color="#fff6f7"/></linearGradient><linearGradient id="SVGID_2_" gradientUnits="userSpaceOnUse" x1="256" x2="256" y1="407" y2="105"><stop offset="0" stop-color="#ffa68d"/><stop offset="1" stop-color="#fd3a84"/></linearGradient><g><g><circle cx="256" cy="256" fill="url(#SVGID_1_)" r="256"/></g><g><g><g><g><path d="m276.372 240.84-29.257 29.249-11.487-11.484c-3.471-3.47-9.093-3.47-12.563 0s-3.471 9.09 0 12.56l17.769 17.764c1.735 1.735 4.008 2.603 6.282 2.603 2.273 0 4.547-.868 6.282-2.603l35.538-35.529c3.471-3.47 3.471-9.09 0-12.56s-9.093-3.47-12.564 0zm86.243-100.307c-33.118 0-65.177-9.706-92.733-28.069l-8.954-5.968c-2.985-1.995-6.872-1.995-9.856 0l-8.954 5.968c-27.556 18.363-59.615 28.069-92.733 28.069-4.911 0-8.885 3.973-8.885 8.882v100.818c0 71.032 45.291 133.849 112.689 156.306.911.304 1.865.46 2.811.46s1.9-.156 2.811-.46c67.398-22.456 112.689-85.273 112.689-156.305v-100.818c0-4.91-3.974-8.883-8.885-8.883zm-106.615 195.409c-44.093 0-79.962-35.859-79.962-79.94s35.868-79.94 79.962-79.94 79.962 35.859 79.962 79.94-35.869 79.94-79.962 79.94z" fill="url(#SVGID_2_)"/></g></g></g></g></g></svg>