<svg width="104" height="184" viewBox="0 0 104 184" fill="none" xmlns="http://www.w3.org/2000/svg">
<path d="M23.5393 100.275C30.3484 108.878 38.8288 120.117 48.6909 134.288C49.4368 135.358 50.6627 136 51.9745 136C53.2863 136 54.5122 135.358 55.2581 134.288C65.0228 120.261 73.4637 109.057 80.2497 100.481C95.5312 81.1623 103.949 70.5202 103.949 51.7969C103.949 23.2369 80.6324 0 51.9745 0C23.3166 0 0 23.2369 0 51.7969C0 70.5397 8.35911 81.1038 23.5393 100.275ZM51.9745 23.9063C67.4045 23.9063 79.9607 36.4196 79.9607 51.7969C79.9607 67.1743 67.4045 79.6876 51.9745 79.6876C36.5445 79.6876 23.9883 67.1743 23.9883 51.7969C23.9883 36.4196 36.5445 23.9063 51.9745 23.9063Z" fill="white"/>
<path d="M23.5393 100.275C30.3484 108.878 38.8288 120.117 48.6909 134.288C49.4368 135.358 50.6627 136 51.9745 136C53.2863 136 54.5122 135.358 55.2581 134.288C65.0228 120.261 73.4637 109.057 80.2497 100.481C95.5312 81.1623 103.949 70.5202 103.949 51.7969C103.949 23.2369 80.6324 0 51.9745 0C23.3166 0 0 23.2369 0 51.7969C0 70.5397 8.35911 81.1038 23.5393 100.275ZM51.9745 23.9063C67.4045 23.9063 79.9607 36.4196 79.9607 51.7969C79.9607 67.1743 67.4045 79.6876 51.9745 79.6876C36.5445 79.6876 23.9883 67.1743 23.9883 51.7969C23.9883 36.4196 36.5445 23.9063 51.9745 23.9063Z" fill="white"/>
<path d="M23.5393 100.275C30.3484 108.878 38.8288 120.117 48.6909 134.288C49.4368 135.358 50.6627 136 51.9745 136C53.2863 136 54.5122 135.358 55.2581 134.288C65.0228 120.261 73.4637 109.057 80.2497 100.481C95.5312 81.1623 103.949 70.5202 103.949 51.7969C103.949 23.2369 80.6324 0 51.9745 0C23.3166 0 0 23.2369 0 51.7969C0 70.5397 8.35911 81.1038 23.5393 100.275ZM51.9745 23.9063C67.4045 23.9063 79.9607 36.4196 79.9607 51.7969C79.9607 67.1743 67.4045 79.6876 51.9745 79.6876C36.5445 79.6876 23.9883 67.1743 23.9883 51.7969C23.9883 36.4196 36.5445 23.9063 51.9745 23.9063Z" fill="white"/>
<path d="M23.5393 100.275C30.3484 108.878 38.8288 120.117 48.6909 134.288C49.4368 135.358 50.6627 136 51.9745 136C53.2863 136 54.5122 135.358 55.2581 134.288C65.0228 120.261 73.4637 109.057 80.2497 100.481C95.5312 81.1623 103.949 70.5202 103.949 51.7969C103.949 23.2369 80.6324 0 51.9745 0C23.3166 0 0 23.2369 0 51.7969C0 70.5397 8.35911 81.1038 23.5393 100.275ZM51.9745 23.9063C67.4045 23.9063 79.9607 36.4196 79.9607 51.7969C79.9607 67.1743 67.4045 79.6876 51.9745 79.6876C36.5445 79.6876 23.9883 67.1743 23.9883 51.7969C23.9883 36.4196 36.5445 23.9063 51.9745 23.9063Z" fill="white"/>
<path d="M23.5393 100.275C30.3484 108.878 38.8288 120.117 48.6909 134.288C49.4368 135.358 50.6627 136 51.9745 136C53.2863 136 54.5122 135.358 55.2581 134.288C65.0228 120.261 73.4637 109.057 80.2497 100.481C95.5312 81.1623 103.949 70.5202 103.949 51.7969C103.949 23.2369 80.6324 0 51.9745 0C23.3166 0 0 23.2369 0 51.7969C0 70.5397 8.35911 81.1038 23.5393 100.275ZM51.9745 23.9063C67.4045 23.9063 79.9607 36.4196 79.9607 51.7969C79.9607 67.1743 67.4045 79.6876 51.9745 79.6876C36.5445 79.6876 23.9883 67.1743 23.9883 51.7969C23.9883 36.4196 36.5445 23.9063 51.9745 23.9063Z" fill="white"/>
<path d="M23.5393 100.275C30.3484 108.878 38.8288 120.117 48.6909 134.288C49.4368 135.358 50.6627 136 51.9745 136C53.2863 136 54.5122 135.358 55.2581 134.288C65.0228 120.261 73.4637 109.057 80.2497 100.481C95.5312 81.1623 103.949 70.5202 103.949 51.7969C103.949 23.2369 80.6324 0 51.9745 0C23.3166 0 0 23.2369 0 51.7969C0 70.5397 8.35911 81.1038 23.5393 100.275ZM51.9745 23.9063C67.4045 23.9063 79.9607 36.4196 79.9607 51.7969C79.9607 67.1743 67.4045 79.6876 51.9745 79.6876C36.5445 79.6876 23.9883 67.1743 23.9883 51.7969C23.9883 36.4196 36.5445 23.9063 51.9745 23.9063Z" fill="white"/>
<path d="M22.4359 179.724V183H5.91192V157.872H9.18792V179.724H22.4359ZM28.6701 161.112C30.9501 158.712 33.9861 157.512 37.7781 157.512C41.5701 157.512 44.6061 158.712 46.8861 161.112C49.1661 163.512 50.3421 166.62 50.4141 170.436C50.3421 174.252 49.1661 177.36 46.8861 179.76C44.6061 182.16 41.5701 183.36 37.7781 183.36C33.9861 183.36 30.9501 182.16 28.6701 179.76C26.3901 177.36 25.2141 174.252 25.1421 170.436C25.2141 166.62 26.3901 163.512 28.6701 161.112ZM28.4181 170.436C28.4181 173.292 29.2461 175.656 30.9021 177.528C32.5821 179.376 34.8621 180.3 37.7421 180.3C40.6461 180.3 42.9381 179.376 44.6181 177.528C46.2981 175.656 47.1381 173.292 47.1381 170.436C47.1381 167.58 46.2981 165.228 44.6181 163.38C42.9381 161.508 40.6461 160.572 37.7421 160.572C34.8621 160.572 32.5821 161.508 30.9021 163.38C29.2461 165.228 28.4181 167.58 28.4181 170.436ZM75.3098 163.092C72.8378 161.46 70.1138 160.644 67.1378 160.644C64.1618 160.644 61.8338 161.556 60.1538 163.38C58.4738 165.204 57.6338 167.556 57.6338 170.436C57.6338 173.316 58.4738 175.668 60.1538 177.492C61.8338 179.316 64.1618 180.228 67.1378 180.228C70.1138 180.228 72.8378 179.412 75.3098 177.78H75.4898V181.02C72.8978 182.58 70.0538 183.36 66.9578 183.36C63.2858 183.36 60.2618 182.196 57.8858 179.868C55.5338 177.516 54.3578 174.372 54.3578 170.436C54.3578 166.5 55.5338 163.368 57.8858 161.04C60.2618 158.688 63.2858 157.512 66.9578 157.512C70.0538 157.512 72.8978 158.292 75.4898 159.852V163.092H75.3098ZM98.8265 183L96.1265 176.556H83.9225L81.2225 183H77.6585L88.3145 157.872H91.7345L102.391 183H98.8265ZM85.2185 173.388V173.568H94.8305V173.388L90.0785 161.904H90.0065L85.2185 173.388Z" fill="white"/>
</svg>
