<svg width="58" height="76" viewBox="0 0 58 76" fill="none" xmlns="http://www.w3.org/2000/svg">
<path d="M13.1341 56.0358C16.9334 60.8433 21.6652 67.1241 27.1678 75.0432C27.584 75.641 28.2681 76 29 76C29.7319 76 30.416 75.6413 30.8322 75.0432C36.2805 67.2045 40.9902 60.9433 44.7766 56.1511C53.3032 45.3554 58 39.4084 58 28.9454C58 12.9854 44.9901 0 29 0C13.0099 0 0 12.9854 0 28.9454C0 39.4192 4.6641 45.3227 13.1341 56.0358V56.0358ZM29 13.3594C37.6094 13.3594 44.6154 20.3522 44.6154 28.9454C44.6154 37.5386 37.6094 44.5313 29 44.5313C20.3906 44.5313 13.3846 37.5386 13.3846 28.9454C13.3846 20.3522 20.3906 13.3594 29 13.3594Z" fill="white"/>
<path d="M13.1341 56.0358C16.9334 60.8433 21.6652 67.1241 27.1678 75.0432C27.584 75.641 28.2681 76 29 76C29.7319 76 30.416 75.6413 30.8322 75.0432C36.2805 67.2045 40.9902 60.9433 44.7766 56.1511C53.3032 45.3554 58 39.4084 58 28.9454C58 12.9854 44.9901 0 29 0C13.0099 0 0 12.9854 0 28.9454C0 39.4192 4.6641 45.3227 13.1341 56.0358V56.0358ZM29 13.3594C37.6094 13.3594 44.6154 20.3522 44.6154 28.9454C44.6154 37.5386 37.6094 44.5313 29 44.5313C20.3906 44.5313 13.3846 37.5386 13.3846 28.9454C13.3846 20.3522 20.3906 13.3594 29 13.3594Z" fill="url(#paint0_linear)"/>
<path d="M13.1341 56.0358C16.9334 60.8433 21.6652 67.1241 27.1678 75.0432C27.584 75.641 28.2681 76 29 76C29.7319 76 30.416 75.6413 30.8322 75.0432C36.2805 67.2045 40.9902 60.9433 44.7766 56.1511C53.3032 45.3554 58 39.4084 58 28.9454C58 12.9854 44.9901 0 29 0C13.0099 0 0 12.9854 0 28.9454C0 39.4192 4.6641 45.3227 13.1341 56.0358V56.0358ZM29 13.3594C37.6094 13.3594 44.6154 20.3522 44.6154 28.9454C44.6154 37.5386 37.6094 44.5313 29 44.5313C20.3906 44.5313 13.3846 37.5386 13.3846 28.9454C13.3846 20.3522 20.3906 13.3594 29 13.3594Z" fill="url(#paint1_linear)"/>
<defs>
<linearGradient id="paint0_linear" x1="29" y1="0" x2="29" y2="76" gradientUnits="userSpaceOnUse">
<stop stop-color="white"/>
<stop offset="1" stop-color="#C0F4FF"/>
</linearGradient>
<linearGradient id="paint1_linear" x1="29" y1="0" x2="29" y2="76" gradientUnits="userSpaceOnUse">
<stop stop-color="#56CCF2"/>
<stop offset="1" stop-color="#2F80ED"/>
</linearGradient>
</defs>
</svg>
