<svg width="229" height="83" viewBox="0 0 229 83" fill="none" xmlns="http://www.w3.org/2000/svg">
<path d="M134.25 45.0681V49.2315H113.25V17.2966H117.413V45.0681H134.25Z" fill="#4C535E"/>
<path d="M139.885 21.4143C142.783 18.3642 146.642 16.8391 151.461 16.8391C156.28 16.8391 160.138 18.3642 163.036 21.4143C165.934 24.4644 167.428 28.4143 167.52 33.2641C167.428 38.1138 165.934 42.0637 163.036 45.1138C160.138 48.1639 156.28 49.689 151.461 49.689C146.642 49.689 142.783 48.1639 139.885 45.1138C136.988 42.0637 135.493 38.1138 135.402 33.2641C135.493 28.4143 136.988 24.4644 139.885 21.4143ZM139.565 33.2641C139.565 36.8937 140.618 39.8981 142.722 42.2772C144.857 44.6258 147.755 45.8001 151.415 45.8001C155.106 45.8001 158.019 44.6258 160.154 42.2772C162.289 39.8981 163.356 36.8937 163.356 33.2641C163.356 29.6344 162.289 26.6453 160.154 24.2967C158.019 21.9176 155.106 20.728 151.415 20.728C147.755 20.728 144.857 21.9176 142.722 24.2967C140.618 26.6453 139.565 29.6344 139.565 33.2641Z" fill="#4C535E"/>
<path d="M196.872 23.9307C193.73 21.8566 190.268 20.8195 186.486 20.8195C182.704 20.8195 179.745 21.9786 177.61 24.2967C175.475 26.6148 174.407 29.6039 174.407 33.2641C174.407 36.9242 175.475 39.9133 177.61 42.2314C179.745 44.5495 182.704 45.7086 186.486 45.7086C190.268 45.7086 193.73 44.6715 196.872 42.5974H197.1V46.7151C193.806 48.6977 190.192 49.689 186.257 49.689C181.591 49.689 177.747 48.2097 174.728 45.2511C171.739 42.2619 170.244 38.2663 170.244 33.2641C170.244 28.2618 171.739 24.2814 174.728 21.3228C177.747 18.3337 181.591 16.8391 186.257 16.8391C190.192 16.8391 193.806 17.8304 197.1 19.813V23.9307H196.872Z" fill="#4C535E"/>
<path d="M224.471 49.2315L221.04 41.0419H205.53L202.098 49.2315H197.569L211.112 17.2966H215.458L229.001 49.2315H224.471ZM207.177 37.0157V37.2445H219.393V37.0157L213.353 22.4208H213.262L207.177 37.0157Z" fill="#4C535E"/>
<path d="M118.551 58.0466C120.228 58.0466 121.305 58.5498 121.305 59.4585C121.305 60.3812 120.228 60.8705 118.551 60.8705C116.859 60.8705 115.783 60.3812 115.783 59.4585C115.783 58.5498 116.859 58.0466 118.551 58.0466ZM118.551 62.3384C121.291 62.3384 123.206 61.22 123.206 59.4585C123.206 57.7111 121.291 56.5787 118.551 56.5787C115.797 56.5787 113.895 57.7111 113.895 59.4585C113.895 61.22 115.797 62.3384 118.551 62.3384ZM124.408 63.303H112.749V64.7988H115.391V69.0067H117.251V64.7988H119.837V69.0067H121.71V64.7988H124.408V63.303Z" fill="#9B9DA2"/>
<path d="M133.494 67.6367C131.774 67.6367 130.894 67.3431 130.894 66.6721C130.894 66.0011 131.774 65.6935 133.494 65.6935C135.213 65.6935 136.094 66.0011 136.094 66.6721C136.094 67.3431 135.213 67.6367 133.494 67.6367ZM133.494 64.2955C130.712 64.2955 129.034 65.1483 129.034 66.6721C129.034 68.1819 130.712 69.0347 133.494 69.0347C136.276 69.0347 137.967 68.1819 137.967 66.6721C137.967 65.1483 136.276 64.2955 133.494 64.2955ZM134.458 62.1986V61.1361H138.037V59.6682H130.964V58.1584H137.967V56.6905H129.132V61.1361H132.613V62.1986H127.72V63.6664H139.365V62.1986H134.458Z" fill="#9B9DA2"/>
<path d="M151.583 59.4865V60.6608H149.29V59.4865H151.583ZM147.487 61.6534H145.04V60.0597H147.487V61.6534ZM149.29 62.1287H151.583V63.8342H153.428V56.1453H151.583V58.0186H149.29V56.9142H147.487V58.6477H145.04V56.9282H143.209V63.1212H149.29V62.1287ZM149.066 67.6227C147.389 67.6227 146.508 67.2732 146.508 66.5463C146.508 65.8193 147.389 65.4698 149.066 65.4698C150.758 65.4698 151.639 65.8193 151.639 66.5463C151.639 67.2732 150.758 67.6227 149.066 67.6227ZM149.066 64.0718C146.34 64.0718 144.663 64.9805 144.663 66.5463C144.663 68.112 146.34 69.0207 149.066 69.0207C151.806 69.0207 153.484 68.112 153.484 66.5463C153.484 64.9805 151.806 64.0718 149.066 64.0718Z" fill="#9B9DA2"/>
<path d="M164.191 61.9749C162.919 62.2125 161.787 62.2685 159.941 62.2824V60.9404H163.73V56.8723H158.096V58.3541H161.913V59.5704H158.11V63.7643H159.103C161.549 63.7643 162.877 63.7224 164.373 63.4428L164.191 61.9749ZM159.578 66.1269H166.54V69.0347H168.385V64.659H159.578V66.1269ZM166.54 56.1593V57.9208H164.471V59.4026H166.54V60.6748H164.471V62.1426H166.54V64.0858H168.385V56.1453L166.54 56.1593Z" fill="#9B9DA2"/>
<path d="M179.456 61.6673C179.75 60.0457 179.75 58.7735 179.75 57.8788V57.082H173.137V58.5498H177.932C177.918 59.3187 177.862 60.2554 177.653 61.4576L179.456 61.6673ZM180.309 62.1846C179.107 62.3523 177.82 62.4502 176.548 62.5061V60.0736H174.745V62.576C173.906 62.59 173.109 62.59 172.396 62.59L172.564 64.0579C174.773 64.0439 177.765 63.988 180.421 63.4987L180.309 62.1846ZM176.115 64.9246H174.27V68.797H183.259V67.3291H176.115V64.9246ZM182.853 60.0597V56.1313H181.008V65.7774H182.853V61.5835H184.391V60.0597H182.853Z" fill="#9B9DA2"/>
<path d="M190.108 62.2125H194.287V57.2357H188.206V58.7036H192.4V60.7586H188.22V66.057H189.381C191.715 66.057 193.602 65.9731 195.699 65.6096L195.504 64.1138C193.686 64.4213 192.065 64.5192 190.108 64.5332V62.2125ZM196.398 56.1313V69.0486H198.244V56.1313H196.398Z" fill="#9B9DA2"/>
<path d="M206.491 59.7801H208.462V58.2982H206.491V56.5647H204.743V58.2982H202.73V59.7801H204.743V60.0457C204.743 62.0308 204.086 64.1417 202.255 65.2182L203.289 66.6022C204.45 65.9312 205.205 64.7848 205.638 63.4428C206.099 64.673 206.84 65.6935 207.973 66.2946L208.965 64.9246C207.148 63.96 206.491 61.9889 206.491 60.0457V59.7801ZM209.189 61.0103H207.721V62.5061H209.189V68.4335H210.908V56.355H209.189V61.0103ZM211.789 56.1313V69.0067H213.537V56.1313H211.789Z" fill="#9B9DA2"/>
<path d="M224.132 59.5424H222.888C222.958 58.9413 223 58.3262 223 57.6691H217.995V59.137H221.168C220.931 61.6534 219.812 63.5127 217.268 65.0644L218.317 66.3506C220.721 64.9246 222.007 63.1352 222.58 61.0103H224.132V62.7578H222.343V64.2396H224.132V68.4615H225.852V56.4249H224.132V59.5424ZM226.774 56.1313V69.0207H228.522V56.1313H226.774Z" fill="#9B9DA2"/>
<path d="M10 39.7152C10 11.438 21.438 0 49.7152 0H51.6216C79.8988 0 91.3368 11.438 91.3368 39.7152V41.6216C91.3368 69.8988 79.8988 81.3368 51.6216 81.3368H49.7152C21.438 81.3368 10 69.8988 10 41.6216V39.7152Z" fill="#C4C4C4"/>
<path d="M10 39.7152C10 11.438 21.438 0 49.7152 0H51.6216C79.8988 0 91.3368 11.438 91.3368 39.7152V41.6216C91.3368 69.8988 79.8988 81.3368 51.6216 81.3368H49.7152C21.438 81.3368 10 69.8988 10 41.6216V39.7152Z" fill="url(#paint0_linear)"/>
<g filter="url(#filter0_d)">
<path d="M40.4945 52.3217C42.9279 55.4068 45.9587 59.4373 49.4832 64.5191C49.7497 64.9027 50.1879 65.1331 50.6567 65.1331C51.1255 65.1331 51.5636 64.9029 51.8302 64.5191C55.3199 59.4889 58.3365 55.471 60.7617 52.3958C66.223 45.468 69.2313 41.6517 69.2313 34.9374C69.2313 24.6957 60.8984 16.3628 50.6567 16.3628C40.4149 16.3628 32.082 24.6957 32.082 34.9374C32.082 41.6587 35.0694 45.447 40.4945 52.3217ZM50.6567 24.9357C56.1711 24.9357 60.6584 29.4231 60.6584 34.9374C60.6584 40.4518 56.1711 44.9392 50.6567 44.9392C45.1423 44.9392 40.655 40.4518 40.655 34.9374C40.655 29.4231 45.1423 24.9357 50.6567 24.9357Z" fill="white"/>
<path d="M40.4945 52.3217C42.9279 55.4068 45.9587 59.4373 49.4832 64.5191C49.7497 64.9027 50.1879 65.1331 50.6567 65.1331C51.1255 65.1331 51.5636 64.9029 51.8302 64.5191C55.3199 59.4889 58.3365 55.471 60.7617 52.3958C66.223 45.468 69.2313 41.6517 69.2313 34.9374C69.2313 24.6957 60.8984 16.3628 50.6567 16.3628C40.4149 16.3628 32.082 24.6957 32.082 34.9374C32.082 41.6587 35.0694 45.447 40.4945 52.3217ZM50.6567 24.9357C56.1711 24.9357 60.6584 29.4231 60.6584 34.9374C60.6584 40.4518 56.1711 44.9392 50.6567 44.9392C45.1423 44.9392 40.655 40.4518 40.655 34.9374C40.655 29.4231 45.1423 24.9357 50.6567 24.9357Z" fill="url(#paint1_linear)"/>
</g>
<defs>
<filter id="filter0_d" x="0.0820312" y="0.362793" width="101.149" height="112.771" filterUnits="userSpaceOnUse" color-interpolation-filters="sRGB">
<feFlood flood-opacity="0" result="BackgroundImageFix"/>
<feColorMatrix in="SourceAlpha" type="matrix" values="0 0 0 0 0 0 0 0 0 0 0 0 0 0 0 0 0 0 127 0" result="hardAlpha"/>
<feOffset dy="16"/>
<feGaussianBlur stdDeviation="16"/>
<feComposite in2="hardAlpha" operator="out"/>
<feColorMatrix type="matrix" values="0 0 0 0 0 0 0 0 0 0 0 0 0 0 0 0 0 0 0.1 0"/>
<feBlend mode="normal" in2="BackgroundImageFix" result="effect1_dropShadow"/>
<feBlend mode="normal" in="SourceGraphic" in2="effect1_dropShadow" result="shape"/>
</filter>
<linearGradient id="paint0_linear" x1="50.6684" y1="0" x2="50.6684" y2="81.3368" gradientUnits="userSpaceOnUse">
<stop stop-color="#56CCF2"/>
<stop offset="1" stop-color="#2F80ED"/>
</linearGradient>
<linearGradient id="paint1_linear" x1="50.6567" y1="16.3628" x2="50.6567" y2="65.1331" gradientUnits="userSpaceOnUse">
<stop stop-color="white"/>
<stop offset="1" stop-color="#C0F4FF"/>
</linearGradient>
</defs>
</svg>
