<svg width="553" height="154" viewBox="0 0 553 154" fill="none" xmlns="http://www.w3.org/2000/svg">
<path d="M254.096 113.848V126.952H188V26.44H201.104V113.848H254.096Z" fill="#4C535E"/>
<path d="M271.833 39.4C280.953 29.8 293.097 25 308.265 25C323.433 25 335.577 29.8 344.697 39.4C353.817 49 358.521 61.432 358.809 76.696C358.521 91.96 353.817 104.392 344.697 113.992C335.577 123.592 323.433 128.392 308.265 128.392C293.097 128.392 280.953 123.592 271.833 113.992C262.713 104.392 258.009 91.96 257.721 76.696C258.009 61.432 262.713 49 271.833 39.4ZM270.825 76.696C270.825 88.12 274.137 97.576 280.761 105.064C287.481 112.456 296.601 116.152 308.121 116.152C319.737 116.152 328.905 112.456 335.625 105.064C342.345 97.576 345.705 88.12 345.705 76.696C345.705 65.272 342.345 55.864 335.625 48.472C328.905 40.984 319.737 37.24 308.121 37.24C296.601 37.24 287.481 40.984 280.761 48.472C274.137 55.864 270.825 65.272 270.825 76.696Z" fill="#4C535E"/>
<path d="M451.192 47.32C441.304 40.792 430.408 37.528 418.504 37.528C406.6 37.528 397.288 41.176 390.568 48.472C383.848 55.768 380.488 65.176 380.488 76.696C380.488 88.216 383.848 97.624 390.568 104.92C397.288 112.216 406.6 115.864 418.504 115.864C430.408 115.864 441.304 112.6 451.192 106.072H451.912V119.032C441.544 125.272 430.168 128.392 417.784 128.392C403.096 128.392 390.999 123.736 381.495 114.424C372.087 105.016 367.383 92.44 367.383 76.696C367.383 60.952 372.087 48.424 381.495 39.112C390.999 29.704 403.096 25 417.784 25C430.168 25 441.544 28.12 451.912 34.36V47.32H451.192Z" fill="#4C535E"/>
<path d="M538.058 126.952L527.258 101.176H478.442L467.642 126.952H453.386L496.01 26.44H509.69L552.314 126.952H538.058ZM483.626 88.504V89.224H522.074V88.504L503.066 42.568H502.778L483.626 88.504Z" fill="#4C535E"/>
<path d="M26.7212 113.546C34.4506 123.288 44.0774 136.015 55.2725 152.061C56.1192 153.273 57.5109 154 59 154C60.4891 154 61.8808 153.273 62.7275 152.061C73.8121 136.178 83.3939 123.49 91.0972 113.78C108.444 91.9044 118 79.8538 118 58.6524C118 26.3124 91.5316 0 59 0C26.4684 0 0 26.3124 0 58.6524C0 79.8758 9.48903 91.8382 26.7212 113.546ZM59 27.0704C76.5157 27.0704 90.7692 41.2399 90.7692 58.6524C90.7692 76.065 76.5157 90.2345 59 90.2345C41.4843 90.2345 27.2308 76.065 27.2308 58.6524C27.2308 41.2399 41.4843 27.0704 59 27.0704Z" fill="white"/>
<path d="M26.7212 113.546C34.4506 123.288 44.0774 136.015 55.2725 152.061C56.1192 153.273 57.5109 154 59 154C60.4891 154 61.8808 153.273 62.7275 152.061C73.8121 136.178 83.3939 123.49 91.0972 113.78C108.444 91.9044 118 79.8538 118 58.6524C118 26.3124 91.5316 0 59 0C26.4684 0 0 26.3124 0 58.6524C0 79.8758 9.48903 91.8382 26.7212 113.546ZM59 27.0704C76.5157 27.0704 90.7692 41.2399 90.7692 58.6524C90.7692 76.065 76.5157 90.2345 59 90.2345C41.4843 90.2345 27.2308 76.065 27.2308 58.6524C27.2308 41.2399 41.4843 27.0704 59 27.0704Z" fill="url(#paint0_linear)"/>
<path d="M26.7212 113.546C34.4506 123.288 44.0774 136.015 55.2725 152.061C56.1192 153.273 57.5109 154 59 154C60.4891 154 61.8808 153.273 62.7275 152.061C73.8121 136.178 83.3939 123.49 91.0972 113.78C108.444 91.9044 118 79.8538 118 58.6524C118 26.3124 91.5316 0 59 0C26.4684 0 0 26.3124 0 58.6524C0 79.8758 9.48903 91.8382 26.7212 113.546ZM59 27.0704C76.5157 27.0704 90.7692 41.2399 90.7692 58.6524C90.7692 76.065 76.5157 90.2345 59 90.2345C41.4843 90.2345 27.2308 76.065 27.2308 58.6524C27.2308 41.2399 41.4843 27.0704 59 27.0704Z" fill="url(#paint1_linear)"/>
<defs>
<linearGradient id="paint0_linear" x1="59" y1="0" x2="59" y2="154" gradientUnits="userSpaceOnUse">
<stop stop-color="white"/>
<stop offset="1" stop-color="#C0F4FF"/>
</linearGradient>
<linearGradient id="paint1_linear" x1="59" y1="0" x2="59" y2="154" gradientUnits="userSpaceOnUse">
<stop stop-color="#56CCF2"/>
<stop offset="1" stop-color="#2F80ED"/>
</linearGradient>
</defs>
</svg>
