<svg width="47" height="47" viewBox="0 0 47 47" fill="none" xmlns="http://www.w3.org/2000/svg">
<g clip-path="url(#clip0)">
<path d="M20.6978 0C9.28535 0 0 9.28535 0 20.6978C0 32.1109 9.28535 41.3956 20.6978 41.3956C32.1109 41.3956 41.3956 32.1109 41.3956 20.6978C41.3956 9.28535 32.1109 0 20.6978 0ZM20.6978 37.5746C11.3921 37.5746 3.82114 30.0036 3.82114 20.6979C3.82114 11.3922 11.3921 3.82114 20.6978 3.82114C30.0035 3.82114 37.5745 11.3921 37.5745 20.6978C37.5745 30.0035 30.0035 37.5746 20.6978 37.5746Z" fill="#4B4B4B"/>
<path d="M46.44 43.7387L35.486 32.7847C34.7396 32.0383 33.5308 32.0383 32.7844 32.7847C32.038 33.5305 32.038 34.7405 32.7844 35.4863L43.7384 46.4403C44.1115 46.8134 44.6001 47 45.0892 47C45.5776 47 46.0667 46.8134 46.44 46.4403C47.1864 45.6945 47.1864 44.4844 46.44 43.7387Z" fill="#4B4B4B"/>
</g>
<defs>
<clipPath id="clip0">
<rect width="47" height="47" fill="white"/>
</clipPath>
</defs>
</svg>
