<svg width="41" height="40" viewBox="0 0 41 40" fill="none" xmlns="http://www.w3.org/2000/svg">
<path d="M34.6 29.8C35.4 28.4 36 26.8 36 25C36 20 32 16 27 16C22 16 18 20 18 25C18 30 22 34 27 34C28.8 34 30.4 33.4 31.8 32.6L38.2 39L41 36.2L34.6 29.8ZM27 30C24.2 30 22 27.8 22 25C22 22.2 24.2 20 27 20C29.8 20 32 22.2 32 25C32 27.8 29.8 30 27 30ZM20 36V40C8.96 40 0 31.04 0 20C0 8.96 8.96 0 20 0C29.68 0 37.74 6.88 39.6 16H35.46C34.18 11.08 30.66 7.06 26 5.18V6C26 8.2 24.2 10 22 10H18V14C18 15.1 17.1 16 16 16H12V20H16V26H14L4.42 16.42C4.16 17.58 4 18.76 4 20C4 28.82 11.18 36 20 36Z" fill="#B4B4B4"/>
</svg>
