<svg width="48" height="48" viewBox="0 0 48 48" fill="none" xmlns="http://www.w3.org/2000/svg">
<path d="M41.68 8.44C41.58 8.2 41.46 7.98 41.32 7.76C41.04 7.34 40.66 6.96 40.24 6.68C40.02 6.54 39.8 6.42 39.56 6.32C39.08 6.12 38.56 6 38 6H36V2H32V6H16V2H12V6H10C9.16 6 8.4 6.26 7.76 6.68C7.34 6.96 6.96 7.34 6.68 7.76C6.54 7.98 6.42 8.2 6.32 8.44C6.12 8.92 6 9.44 6 10V38C6 40.2 7.78 42 10 42H38C38.56 42 39.08 41.88 39.56 41.68C39.8 41.58 40.02 41.46 40.24 41.32C40.66 41.04 41.04 40.66 41.32 40.24C41.74 39.6 42 38.82 42 38V10C42 9.44 41.88 8.92 41.68 8.44ZM10 38V10H38V38H10ZM24 25.76C19.94 25.76 12 27.92 12 32.92V36H36V32.94C36 27.92 28.06 25.76 24 25.76ZM16.62 32C18 30.88 21.38 29.76 24 29.76C26.62 29.76 30.02 30.88 31.38 32H16.62ZM24 24C27.3 24 30 21.3 30 18C30 14.7 27.3 12 24 12C20.7 12 18 14.7 18 18C18 21.3 20.7 24 24 24ZM24 16C25.1 16 26 16.9 26 18C26 19.1 25.1 20 24 20C22.9 20 22 19.1 22 18C22 16.9 22.9 16 24 16Z" fill="#B4B4B4"/>
</svg>
