<svg width="64" height="64" viewBox="0 0 64 64" fill="none" xmlns="http://www.w3.org/2000/svg">
<path d="M32 64C49.6731 64 64 49.6731 64 32C64 14.3269 49.6731 0 32 0C14.3269 0 0 14.3269 0 32C0 49.6731 14.3269 64 32 64Z" fill="url(#paint0_linear)"/>
<path d="M46.1085 24.5532L43.8893 22.334C43.4558 21.8994 42.7473 21.9021 42.3165 22.334L40.0973 24.5532C39.6635 24.987 39.6635 25.6896 40.0973 26.1232C40.531 26.557 41.2335 26.557 41.6673 26.1232L41.9925 25.798V32C41.9925 32.6138 42.4892 33.1102 43.1028 33.1102C43.7165 33.1102 44.213 32.6136 44.213 32V25.798L44.5383 26.1232C44.972 26.557 45.6745 26.557 46.1083 26.1232C46.5423 25.6895 46.5423 24.987 46.1085 24.5532ZM20.8972 19.7868H23.1178C23.7315 19.7868 24.228 19.2901 24.228 18.6764C24.228 18.0627 23.7314 17.5661 23.1178 17.5661H20.8972C20.2834 17.5661 19.7869 18.0627 19.7869 18.6764C19.7868 19.2901 20.2834 19.7868 20.8972 19.7868ZM18.6765 24.2279H23.1178C23.7315 24.2279 24.228 23.7312 24.228 23.1176C24.228 22.504 23.7314 22.0074 23.1178 22.0074H18.6765C18.0629 22.0074 17.5663 22.504 17.5663 23.1176C17.5663 23.7312 18.0628 24.2279 18.6765 24.2279ZM23.1177 26.4485H20.897C20.2833 26.4485 19.7868 26.9451 19.7868 27.5589C19.7868 28.1725 20.2834 28.6691 20.897 28.6691H23.1177C23.7314 28.6691 24.2279 28.1725 24.2279 27.5589C24.2279 26.9451 23.7314 26.4485 23.1177 26.4485ZM24.2279 32C24.2279 31.3862 23.7313 30.8897 23.1177 30.8897H18.6764C18.0628 30.8897 17.5662 31.3864 17.5662 32C17.5662 32.6136 18.0628 33.1102 18.6764 33.1102H23.1177C23.7314 33.1102 24.2279 32.6138 24.2279 32ZM32 39.7721C31.3874 39.7721 30.8898 40.2697 30.8898 40.8824C30.8898 41.495 31.3874 41.9926 32 41.9926C32.6127 41.9926 33.1103 41.495 33.1103 40.8824C33.1103 40.2697 32.6127 39.7721 32 39.7721ZM37.5515 32.618V18.6765C37.5515 15.6156 35.0609 13.125 32 13.125C28.9392 13.125 26.4485 15.6156 26.4485 18.6765V32.6181C23.6934 34.469 22.0073 37.5786 22.0073 40.8825C22.0074 46.3926 26.4898 50.875 32 50.875C37.5103 50.875 41.9927 46.3926 41.9927 40.8824C41.9927 37.5786 40.3067 34.4689 37.5515 32.618ZM30.8898 18.6765C30.8898 18.0629 31.3864 17.5662 32 17.5662C32.6137 17.5662 33.1103 18.0629 33.1103 18.6765V32C33.1103 32.6138 32.6137 33.1102 32 33.1102C31.3864 33.1102 30.8898 32.6136 30.8898 32V18.6765ZM35.3309 40.8824C35.3309 41.0897 35.3063 41.2909 35.2698 41.4879L36.401 42.1413C36.9323 42.4481 37.1145 43.1269 36.8077 43.6581C36.5 44.1909 35.8192 44.37 35.2908 44.0648L34.1494 43.4056C33.844 43.6661 33.4957 43.8714 33.1103 44.0088V45.3235C33.1103 45.9373 32.6137 46.4339 32 46.4339C31.3864 46.4339 30.8898 45.9373 30.8898 45.3235V44.0088C30.5044 43.8713 30.156 43.6661 29.8507 43.4056L28.7093 44.0648C28.1798 44.3706 27.4995 44.1899 27.1924 43.6581C26.8855 43.1269 27.0678 42.4481 27.599 42.1413L28.7303 41.4879C28.6938 41.2909 28.6692 41.0897 28.6692 40.8824C28.6692 40.675 28.6938 40.4739 28.7303 40.2769L27.599 39.6235C27.0678 39.3166 26.8855 38.6379 27.1924 38.1066C27.4982 37.5742 28.1769 37.3921 28.7093 37.7L29.8507 38.3591C30.156 38.0986 30.5044 37.8934 30.8898 37.756V36.4411C30.8898 35.8275 31.3864 35.3309 32 35.3309C32.6137 35.3309 33.1103 35.8275 33.1103 36.4411V37.756C33.4957 37.8935 33.844 38.0986 34.1494 38.3591L35.2908 37.7C35.8199 37.3921 36.4998 37.5742 36.8077 38.1066C37.1145 38.6379 36.9323 39.3166 36.401 39.6235L35.2698 40.2769C35.3063 40.4739 35.3309 40.675 35.3309 40.8824Z" fill="url(#paint1_linear)"/>
<defs>
<linearGradient id="paint0_linear" x1="32" y1="64" x2="32" y2="0" gradientUnits="userSpaceOnUse">
<stop stop-color="#FFE59A"/>
<stop offset="1" stop-color="#FFFFD5"/>
</linearGradient>
<linearGradient id="paint1_linear" x1="32" y1="50.875" x2="32" y2="13.125" gradientUnits="userSpaceOnUse">
<stop stop-color="#FFDE00"/>
<stop offset="1" stop-color="#FD5900"/>
</linearGradient>
</defs>
</svg>
